<svg width="46" height="46" viewBox="0 0 46 46" fill="none" xmlns="http://www.w3.org/2000/svg">
<g clip-path="url(#clip0_45_529)">
<path d="M24.3476 37.9141V13.4301C23.912 13.5189 23.4614 13.5664 23 13.5664C22.5386 13.5664 22.088 13.5189 21.6523 13.4301V37.9141H16.7763L12.7334 46H33.2667L29.2237 37.9141H24.3476Z" fill="#B6161D"/>
<path d="M18.8672 25.6953V24.3477H0V25.6953C0 29.4211 4.22589 35.1289 9.43359 35.1289C14.6413 35.1289 18.8672 29.4211 18.8672 25.6953Z" fill="#B6161D"/>
<path d="M27.1328 24.3477V25.6953C27.1328 29.4211 31.3587 35.1289 36.5664 35.1289C41.7741 35.1289 46 29.4211 46 25.6953V24.3477H27.1328Z" fill="#B6161D"/>
<path d="M9.43361 14.8382L13.5221 21.6523H16.6654L11.4029 12.8815L19.9766 9.48471C20.7181 10.3277 21.7917 10.8711 23 10.8711C24.2083 10.8711 25.282 10.3277 26.0233 9.48481L34.597 12.8816L29.3346 21.6523H32.4779L36.5664 14.8382L40.6549 21.6523H43.7982L37.4889 11.1369L27.0273 6.9823C27.0293 6.92992 27.043 6.88095 27.043 6.82812C27.043 5.07348 25.9129 3.59159 24.3477 3.03339V0H21.6524V3.03339C20.0871 3.59159 18.957 5.07348 18.957 6.82812C18.957 6.88095 18.9707 6.92992 18.9727 6.9823L8.511 11.1369L2.20181 21.6523H5.34509L9.43361 14.8382Z" fill="#B6161D"/>
</g>
<defs>
<clipPath id="clip0_45_529">
<rect width="46" height="46" fill="white"/>
</clipPath>
</defs>
</svg>
